<svg id="logo-svg" xmlns="http://www.w3.org/2000/svg" fill-rule="evenodd" stroke-linejoin="bevel"
  stroke-width=".501" overflow="visible" viewBox="0 0 24 24">
  <path fill="#5472d4"
    d="M2.361 18.215V6.628c.775 2.371 1.353 4.271 1.729 5.705l1.255 5.646.356 1.463c0 .93.52 1.394 1.556 1.394.354 0 .669-.103.945-.31.307-.223.462-.508.462-.854 0-.167-.046-.342-.139-.518.269-1.152.856-2.746 1.762-4.781.784-1.759 1.518-3.906 2.202-6.441.129 1.252.391 2.911.783 4.977.513 2.728.818 4.383.91 4.966.06.387.179.847.352 1.383l-5.182 2.993c-3.859 2.228-6.991.419-6.991-4.036Zm14.136-.651-.99-4.528c-.368-1.766-.63-3.279-.784-4.539-.218-1.907-.434-3.278-.647-4.111l6.118 3.532c.006.003.011.008.017.01-1.479 4.03-2.717 7.242-3.714 9.636Zm2.616-1.026 2.935-7.136c1.849 2.137 1.231 4.806-1.854 6.588l-1.114.644c.012-.032.023-.064.033-.096Zm-11.982-.609-1.118-5.093c-.452-1.959-.907-3.632-1.359-5.023-.424-1.313-.703-2.109-.842-2.386-.202-.406-.469-.662-.798-.765C4.128.551 6.548.04 9.352 1.657l2.733 1.58c-.445.376-.899 1.131-1.359 2.264-.262.645-.641 1.802-1.14 3.468-.815 2.736-1.633 5.054-2.455 6.96Z" />
</svg>